<svg width="18" height="18" viewBox="0 0 18 18" fill="none" xmlns="http://www.w3.org/2000/svg">
<path d="M8.90289 0.00603207L9 0C9.39468 0 9.72039 0.295343 9.76816 0.67708L9.77419 0.774194V8.22581H17.2258C17.6205 8.22581 17.9462 8.52115 17.994 8.90289L18 9C18 9.39468 17.7047 9.72039 17.3229 9.76816L17.2258 9.77419H9.77419V17.2258C9.77419 17.6205 9.47885 17.9462 9.09711 17.994L9 18C8.60532 18 8.27961 17.7047 8.23184 17.3229L8.22581 17.2258V9.77419H0.774194C0.379509 9.77419 0.0538049 9.47885 0.00603207 9.09711L0 9C0 8.60532 0.295343 8.27961 0.67708 8.23184L0.774194 8.22581H8.22581V0.774194C8.22581 0.379509 8.52115 0.0538049 8.90289 0.00603207L9 0L8.90289 0.00603207Z" fill="#FF1053"/>
</svg>
