<svg width="31" height="15" viewBox="0 0 31 15" fill="none" xmlns="http://www.w3.org/2000/svg">
<g clip-path="url(#clip0_70_3405)">
<path d="M5.83765 13.7837H11.8766V14.9999H5.83765V13.7837Z" fill="#FF7F11"/>
<path d="M11.5837 11.437L11.8766 12.3342L9.79961 13.0223C8.21635 13.5473 6.51045 12.6798 5.98977 11.0851C5.46858 9.49041 6.32982 7.77216 7.91305 7.24771C9.49631 6.72275 11.2022 7.59021 11.7229 9.18492C11.9651 9.92571 11.9149 10.7322 11.5832 11.437" fill="#FF1053"/>
<path d="M10.6689 10.0338C10.6689 10.9852 9.90268 11.7567 8.95787 11.7567C8.01305 11.7567 7.24683 10.9852 7.24683 10.0338C7.24683 9.08236 8.01305 8.31079 8.95787 8.31079C9.90268 8.31079 10.6689 9.08236 10.6689 10.0338Z" fill="#FAFAFA"/>
<path d="M0 5.87838V0H2.59776C3.04454 0 3.43516 0.0860692 3.77012 0.258207C4.10508 0.430346 4.36583 0.672448 4.55187 0.984511C4.73789 1.29658 4.83117 1.66098 4.83117 2.07825C4.83117 2.49551 4.73583 2.86395 4.54464 3.17197C4.35347 3.48002 4.086 3.71708 3.74228 3.88368C3.39857 4.05028 2.99714 4.13333 2.539 4.13333H0.987362V2.89314H2.20972C2.40194 2.89314 2.56579 2.85991 2.70185 2.79397C2.83789 2.72803 2.94303 2.63392 3.0162 2.5111C3.08989 2.38879 3.12647 2.24434 3.12647 2.07774C3.12647 1.91114 3.08989 1.76517 3.0162 1.64589C2.9425 1.52609 2.83789 1.43449 2.70185 1.37056C2.56579 1.30664 2.40141 1.27443 2.20972 1.27443H1.63358V5.87838H0Z" fill="#FAFAFA"/>
<path d="M6.14414 5.87838H4.42847L6.36174 0H8.53466L10.4674 5.87838H8.75176L7.47075 1.61871H7.42514L6.14414 5.87838ZM5.82377 3.55903H9.04906V4.75293H5.82377V3.55903Z" fill="#FAFAFA"/>
<path d="M11.0721 5.87838V0H13.6702C14.1171 0 14.5078 0.0795259 14.8428 0.238074C15.1778 0.397127 15.4386 0.625638 15.6247 0.924112C15.8107 1.22259 15.904 1.58045 15.904 1.99771C15.904 2.41498 15.8087 2.77384 15.6175 3.06276C15.4262 3.35167 15.1587 3.57012 14.815 3.71708C14.4712 3.86457 14.0697 3.93805 13.6115 3.93805H12.0596V2.69785H13.2821C13.4744 2.69785 13.6383 2.6742 13.7744 2.62737C13.9104 2.58057 14.0156 2.50557 14.0887 2.40189C14.1625 2.29871 14.1991 2.16381 14.1991 1.99721C14.1991 1.83061 14.1625 1.69169 14.0887 1.58549C14.015 1.47928 13.9104 1.40076 13.7744 1.34993C13.6383 1.29909 13.4739 1.27393 13.2821 1.27393H12.7059V5.87787H11.0715L11.0721 5.87838ZM14.599 3.18053L16.104 5.87838H14.3289L12.8595 3.18053H14.5995H14.599Z" fill="#FAFAFA"/>
<path d="M16.5066 5.87838V0H18.124V4.59237H20.5326V5.87838H16.5066Z" fill="#FAFAFA"/>
<path d="M21.1365 5.87838V0H25.3637V1.286H22.7289V2.2962H25.1463V3.58218H22.7289V4.59237H25.3527V5.87838H21.1369H21.1365Z" fill="#FAFAFA"/>
<path d="M26.1689 5.87838V4.99453L28.9591 1.286H26.1806V0H31.0001V0.883845L28.2099 4.59237H30.9884V5.87838H26.1689Z" fill="#FAFAFA"/>
<path d="M5.23324 7.09448V13.1756H3.86292L1.67744 9.98064H1.64222V13.1756H0V7.09448H1.39415L3.54443 10.2774H3.59155V7.09448H5.23377H5.23324Z" fill="#FAFAFA"/>
<path d="M16.1317 7.09448H17.7144V10.9451C17.7144 11.4031 17.6086 11.7989 17.3969 12.1324C17.1853 12.4659 16.8908 12.7232 16.513 12.9043C16.1352 13.0855 15.697 13.1756 15.1979 13.1756C14.6988 13.1756 14.2546 13.085 13.8772 12.9043C13.4994 12.7232 13.2059 12.4659 12.9963 12.1324C12.7867 11.7989 12.6819 11.4031 12.6819 10.9451V7.09448H14.2645V10.8041C14.2645 10.9899 14.3045 11.1556 14.3843 11.3017C14.4642 11.4474 14.5745 11.5616 14.7157 11.6435C14.857 11.7258 15.0177 11.767 15.1984 11.767C15.379 11.767 15.5418 11.7258 15.682 11.6435C15.8222 11.5611 15.9326 11.4474 16.0124 11.3017C16.0923 11.1561 16.1322 10.9904 16.1322 10.8041V7.09448H16.1317Z" fill="#FAFAFA"/>
<path d="M21.7086 9.02875C21.6927 8.83578 21.6202 8.68495 21.49 8.57679C21.3599 8.46862 21.1629 8.41481 20.8992 8.41481C20.7311 8.41481 20.5936 8.43461 20.4873 8.47422C20.3808 8.51383 20.3021 8.56714 20.2512 8.63519C20.2003 8.70273 20.1741 8.77991 20.1721 8.86675C20.1678 8.93835 20.1813 9.00234 20.2115 9.05922C20.2419 9.1161 20.2902 9.16738 20.3567 9.21258C20.4229 9.25777 20.5082 9.29891 20.6117 9.33546C20.715 9.37203 20.8384 9.40503 20.9815 9.43398L21.4741 9.53808C21.8062 9.60765 22.0907 9.69907 22.3272 9.81331C22.5637 9.92707 22.7572 10.0611 22.9077 10.2145C23.0585 10.3678 23.169 10.5405 23.2405 10.7315C23.3119 10.9224 23.3486 11.1311 23.3506 11.3571C23.3486 11.7471 23.2497 12.0772 23.0545 12.3473C22.859 12.6175 22.5798 12.8231 22.2173 12.9643C21.8545 13.1055 21.4191 13.1756 20.9104 13.1756C20.402 13.1756 19.9334 13.0994 19.5451 12.9471C19.1569 12.7947 18.856 12.5596 18.6421 12.2417C18.4282 11.9243 18.3202 11.517 18.3181 11.0209H19.8665C19.8763 11.2022 19.9221 11.3551 20.0044 11.4785C20.0866 11.6018 20.2023 11.6958 20.352 11.7593C20.5016 11.8227 20.6802 11.8547 20.8873 11.8547C21.0612 11.8547 21.2072 11.8334 21.3245 11.7913C21.4417 11.7486 21.5306 11.6897 21.5912 11.6145C21.652 11.5394 21.6834 11.4536 21.6848 11.3566C21.6828 11.2657 21.653 11.1865 21.5955 11.1179C21.5379 11.0493 21.4433 10.9874 21.3126 10.9325C21.1814 10.8777 21.0046 10.8259 20.7818 10.7777L20.1838 10.6502C19.6521 10.5365 19.233 10.3455 18.927 10.0784C18.621 9.81078 18.4688 9.44567 18.4708 8.98254C18.4688 8.60624 18.5711 8.27666 18.7773 7.99381C18.9835 7.71096 19.27 7.49058 19.6367 7.33213C20.0033 7.1737 20.4239 7.09448 20.8992 7.09448C21.3742 7.09448 21.8032 7.17471 22.1571 7.33469C22.5108 7.49514 22.7839 7.7201 22.9768 8.01108C23.169 8.30156 23.2668 8.64078 23.2683 9.02875H21.708H21.7086Z" fill="#FAFAFA"/>
</g>
<defs>
<clipPath id="clip0_70_3405">
<rect width="31" height="15" fill="white"/>
</clipPath>
</defs>
</svg>
