<svg width="29" height="29" viewBox="0 0 29 29" fill="none" xmlns="http://www.w3.org/2000/svg">
<circle cx="14.5" cy="14.5" r="14.5" fill="#FF1053"/>
<path fill-rule="evenodd" clip-rule="evenodd" d="M14.85 3C17.3353 3 19.35 5.01472 19.35 7.5V14.5C19.35 16.9853 17.3353 19 14.85 19C12.3647 19 10.35 16.9853 10.35 14.5V7.5C10.35 5.01472 12.3647 3 14.85 3ZM7.6 13.3284C7.89823 13.3284 8.14565 13.546 8.19215 13.831L8.2 13.9284V14.0603C8.2 17.8004 11.1795 20.8284 14.85 20.8284C18.4424 20.8284 21.3729 17.9278 21.496 14.2981L21.5 14.0603V13.9388C21.5 13.6074 21.7686 13.3388 22.1 13.3388C22.3982 13.3388 22.6456 13.5564 22.6921 13.8415L22.7 13.9388L22.6963 14.3084C22.5733 18.3891 19.4266 21.7005 15.4499 22.0055L15.45 25.5C15.45 25.8314 15.1814 26.1 14.85 26.1C14.5518 26.1 14.3044 25.8824 14.2579 25.5973L14.25 25.5L14.2505 22.0055C10.2761 21.7009 7.1307 18.3934 7.00397 14.3161L7 13.9284C7 13.597 7.26863 13.3284 7.6 13.3284ZM11.55 7.5C11.55 5.67746 13.0275 4.2 14.85 4.2C16.6725 4.2 18.15 5.67746 18.15 7.5V14.5C18.15 16.3225 16.6725 17.8 14.85 17.8C13.0275 17.8 11.55 16.3225 11.55 14.5V7.5Z" fill="white"/>
</svg>
